<svg width="1920" height="500" viewBox="0 0 1920 500" fill="none" xmlns="http://www.w3.org/2000/svg">
<g clip-path="url(#clip0_3288_262065)">
<path opacity="0.2" d="M1920 0H0C0 0 42.6993 166.213 167.362 326.828C292.025 487.442 514.5 -118.696 576.5 304.917C638.5 728.531 814.088 267.005 846.135 206.093C886.412 129.538 1010.5 304.917 1055.21 341.828C1305.63 548.541 1204.27 280.875 1214.23 235.994C1241.72 112.148 1364.28 270.283 1417.91 304.917C1558.28 380.893 1556.23 265.207 1558.28 239.656C1569.57 99.3689 1673.13 181.797 1760.98 200.135C1848.83 218.473 1920 0 1920 0Z" fill="#217873"/>
<g opacity="0.1">
<path d="M217.289 39.4757L205.739 27.9261C204.807 27.0068 203.565 26.4701 202.257 26.4216C200.949 26.3732 199.67 26.8166 198.673 27.6644C197.133 28.9749 195.157 29.6592 193.137 29.5816C191.116 29.5041 189.199 28.6703 187.764 27.2456C186.34 25.8111 185.507 23.8941 185.429 21.8743C185.352 19.8546 186.036 17.8793 187.346 16.3398C188.193 15.3425 188.637 14.0638 188.588 12.7557C188.54 11.4477 188.003 10.2052 187.084 9.27341L175.524 -2.28933C174.547 -3.26439 173.223 -3.81201 171.843 -3.81201C170.462 -3.81201 169.138 -3.26439 168.162 -2.28933L149.75 16.12C148.613 17.2608 147.756 18.6492 147.245 20.1766C147.146 20.4703 146.98 20.7371 146.761 20.9563C146.541 21.1755 146.275 21.3413 145.981 21.4407C144.453 21.9513 143.064 22.8096 141.924 23.948L94.7102 71.162C93.7351 72.139 93.1875 73.4629 93.1875 74.8431C93.1875 76.2234 93.7351 77.5473 94.7102 78.5242L106.273 90.0738C107.205 90.9931 108.447 91.5299 109.755 91.5783C111.063 91.6268 112.342 91.1834 113.339 90.3356C114.875 89.0144 116.854 88.3226 118.878 88.3986C120.903 88.4746 122.824 89.3129 124.257 90.7455C125.689 92.1781 126.527 94.0991 126.603 96.1237C126.68 98.1483 125.988 100.127 124.667 101.663C123.819 102.66 123.375 103.939 123.424 105.247C123.472 106.555 124.009 107.797 124.928 108.729L136.478 120.279C137.455 121.254 138.779 121.801 140.159 121.801C141.539 121.801 142.863 121.254 143.84 120.279L191.054 73.0647C192.192 71.9252 193.05 70.5376 193.561 69.0107C193.66 68.7161 193.826 68.4484 194.046 68.2286C194.266 68.0089 194.533 67.843 194.828 67.744C196.355 67.2332 197.742 66.376 198.882 65.2393L217.291 46.8274C218.263 45.8506 218.808 44.5288 218.808 43.1511C218.807 41.7733 218.261 40.4519 217.289 39.4757ZM157.52 31.7158C157.131 32.1047 156.67 32.4133 156.161 32.6238C155.653 32.8343 155.109 32.9426 154.559 32.9426C154.009 32.9426 153.464 32.8343 152.956 32.6238C152.448 32.4133 151.986 32.1047 151.597 31.7158L148.585 28.7034C147.819 27.9141 147.394 26.8551 147.402 25.7551C147.41 24.6552 147.851 23.6026 148.629 22.825C149.407 22.0473 150.46 21.607 151.56 21.5993C152.66 21.5915 153.719 22.0168 154.508 22.7833L157.52 25.7931C157.909 26.182 158.218 26.6436 158.428 27.1517C158.639 27.6598 158.747 28.2044 158.747 28.7544C158.747 29.3044 158.639 29.849 158.428 30.3571C158.218 30.8653 157.909 31.3269 157.52 31.7158ZM169.036 43.2314C168.25 44.0161 167.186 44.4569 166.076 44.4569C164.966 44.4569 163.901 44.0161 163.116 43.2314L160.237 40.3525C159.848 39.9636 159.539 39.5019 159.329 38.9938C159.118 38.4857 159.01 37.9411 159.01 37.3912C159.01 36.8412 159.118 36.2966 159.329 35.7885C159.539 35.2804 159.848 34.8187 160.237 34.4298C161.022 33.6444 162.087 33.2032 163.198 33.2032C163.748 33.2032 164.293 33.3115 164.801 33.522C165.309 33.7324 165.771 34.0409 166.159 34.4298L169.038 37.3087C169.429 37.6975 169.738 38.1596 169.95 38.6683C170.161 39.1771 170.27 39.7225 170.27 40.2734C170.271 40.8244 170.162 41.3699 169.951 41.8789C169.74 42.3878 169.431 42.8501 169.041 43.2393L169.036 43.2314ZM180.551 54.747C180.162 55.136 179.701 55.4445 179.193 55.655C178.685 55.8655 178.14 55.9739 177.59 55.9739C177.04 55.9739 176.495 55.8655 175.987 55.655C175.479 55.4445 175.017 55.136 174.629 54.747L171.75 51.8681C170.984 51.0789 170.559 50.0198 170.567 48.9199C170.575 47.8199 171.016 46.7674 171.794 45.9897C172.572 45.2121 173.625 44.7718 174.725 44.764C175.825 44.7562 176.883 45.1815 177.672 45.9481L180.551 48.827C180.943 49.2151 181.254 49.6768 181.466 50.1854C181.679 50.694 181.789 51.2396 181.79 51.7908C181.791 52.3421 181.684 52.8881 181.473 53.3977C181.263 53.9072 180.954 54.3702 180.564 54.7601L180.551 54.747ZM192.179 66.404C191.791 66.7929 191.329 67.1015 190.821 67.312C190.313 67.5225 189.768 67.6308 189.218 67.6308C188.668 67.6308 188.124 67.5225 187.615 67.312C187.107 67.1015 186.646 66.7929 186.257 66.404L183.263 63.3942C182.866 63.0065 182.55 62.5437 182.333 62.0328C182.116 61.5219 182.003 60.9729 182.001 60.418C181.998 59.863 182.106 59.313 182.317 58.8C182.529 58.287 182.841 57.8212 183.234 57.4298C183.628 57.0383 184.095 56.7289 184.609 56.5196C185.123 56.3103 185.673 56.2053 186.228 56.2106C186.783 56.216 187.332 56.3316 187.842 56.5508C188.352 56.7699 188.813 57.0882 189.199 57.4872L192.195 60.4944C192.584 60.8834 192.892 61.3452 193.103 61.8534C193.313 62.3616 193.421 62.9063 193.421 63.4563C193.42 64.0063 193.312 64.5508 193.101 65.0588C192.89 65.5669 192.582 66.0284 192.193 66.4171L192.179 66.404Z" fill="black"/>
</g>
<g opacity="0.1">
<path d="M986.359 -49.8472L969.426 -34.0064C968.078 -32.7277 967.257 -30.9903 967.127 -29.1366C966.996 -27.283 967.565 -25.4477 968.72 -23.9926C970.507 -21.7461 971.384 -18.9104 971.179 -16.0474C970.973 -13.1844 969.699 -10.5032 967.61 -8.53504C965.507 -6.58252 962.748 -5.49091 959.879 -5.47642C957.009 -5.46194 954.239 -6.5256 952.117 -8.4568C950.742 -9.70689 948.948 -10.3965 947.09 -10.3896C945.232 -10.3828 943.444 -9.67994 942.078 -8.41972L925.126 7.43531C923.696 8.7753 922.856 10.6278 922.791 12.5862C922.726 14.5445 923.44 16.4488 924.777 17.8811L950.026 44.8755C951.591 46.5424 953.521 47.8244 955.664 48.6211C956.076 48.7761 956.446 49.0239 956.747 49.3453C957.048 49.6668 957.27 50.0531 957.397 50.4745C958.05 52.6666 959.202 54.6775 960.763 56.3489L1025.52 125.572C1026.86 127.001 1028.71 127.841 1030.67 127.906C1032.63 127.972 1034.53 127.257 1035.96 125.92L1052.9 110.061C1054.25 108.782 1055.07 107.045 1055.2 105.191C1055.33 103.337 1054.76 101.502 1053.6 100.047C1051.8 97.805 1050.91 94.9651 1051.12 92.0961C1051.32 89.2272 1052.6 86.5412 1054.7 84.5763C1056.8 82.6115 1059.57 81.5129 1062.44 81.5009C1065.32 81.4888 1068.09 82.564 1070.21 84.5111C1071.59 85.7612 1073.38 86.4509 1075.24 86.444C1077.1 86.4371 1078.88 85.7343 1080.25 84.4741L1097.18 68.6333C1098.61 67.2933 1099.45 65.4408 1099.52 63.4824C1099.58 61.524 1098.87 59.6198 1097.53 58.1875L1032.78 -11.0353C1031.21 -12.7035 1029.28 -13.9868 1027.14 -14.7845C1026.73 -14.9389 1026.36 -15.1869 1026.06 -15.5092C1025.75 -15.8314 1025.53 -16.219 1025.41 -16.6417C1024.75 -18.8318 1023.6 -20.8411 1022.04 -22.5122L996.79 -49.5031C995.45 -50.9278 993.601 -51.7637 991.646 -51.8282C989.691 -51.8927 987.79 -51.1804 986.359 -49.8472ZM972.522 34.5883C973.055 35.1584 973.471 35.828 973.746 36.5589C974.021 37.2898 974.149 38.0676 974.123 38.848C974.097 39.6283 973.917 40.3959 973.594 41.1069C973.272 41.8179 972.812 42.4583 972.242 42.9916L967.825 47.1232C966.669 48.173 965.146 48.7257 963.586 48.6619C962.026 48.5982 960.553 47.923 959.487 46.7824C958.42 45.6418 957.845 44.1273 957.886 42.5662C957.927 41.0052 958.581 39.5229 959.706 38.4398L964.119 34.3081C964.689 33.7746 965.358 33.3587 966.089 33.0841C966.82 32.8094 967.598 32.6815 968.378 32.7075C969.159 32.7335 969.926 32.913 970.637 33.2357C971.348 33.5584 971.989 34.018 972.522 34.5883ZM989.406 18.7941C990.482 19.9454 991.057 21.4768 991.004 23.0519C990.952 24.627 990.276 26.1168 989.126 27.1938L984.905 31.1423C984.334 31.6757 983.665 32.0915 982.934 32.3661C982.203 32.6407 981.425 32.7687 980.645 32.7426C979.865 32.7166 979.097 32.5372 978.386 32.2145C977.675 31.8918 977.035 31.4323 976.501 30.8622C975.424 29.7106 974.848 28.1784 974.901 26.6024C974.927 25.8221 975.106 25.0545 975.429 24.3436C975.752 23.6326 976.211 22.9921 976.781 22.4588L981.002 18.5102C981.572 17.9749 982.243 17.5573 982.974 17.2813C983.706 17.0054 984.485 16.8766 985.267 16.9024C986.049 16.9281 986.818 17.1078 987.53 17.4312C988.242 17.7546 988.883 18.2154 989.417 18.7871L989.406 18.7941ZM1006.29 2.99998C1006.82 3.5701 1007.24 4.23974 1007.51 4.97063C1007.79 5.70152 1007.92 6.47935 1007.89 7.2597C1007.86 8.04005 1007.68 8.80764 1007.36 9.51862C1007.04 10.2296 1006.58 10.87 1006.01 11.4034L1001.79 15.3519C1000.63 16.4017 999.109 16.9544 997.549 16.8906C995.989 16.8268 994.516 16.1517 993.45 15.011C992.383 13.8704 991.808 12.3559 991.849 10.7949C991.89 9.23381 992.544 7.75157 993.669 6.66847L997.89 2.71993C998.459 2.18299 999.129 1.76374 999.86 1.48622C1000.59 1.2087 1001.37 1.07838 1002.15 1.10273C1002.94 1.12708 1003.71 1.30563 1004.42 1.62812C1005.13 1.95062 1005.77 2.41072 1006.31 2.98203L1006.29 2.99998ZM1023.38 -12.9472C1023.91 -12.377 1024.33 -11.7074 1024.6 -10.9765C1024.88 -10.2456 1025.01 -9.46778 1024.98 -8.68742C1024.95 -7.90707 1024.77 -7.1395 1024.45 -6.42851C1024.13 -5.71754 1023.67 -5.0771 1023.1 -4.54376L1018.69 -0.438039C1018.12 0.107059 1017.45 0.533634 1016.71 0.816888C1015.98 1.10015 1015.19 1.23443 1014.4 1.21194C1013.62 1.18944 1012.84 1.01063 1012.12 0.685869C1011.41 0.361118 1010.76 -0.103091 1010.22 -0.679764C1009.69 -1.25644 1009.27 -1.93409 1009 -2.67329C1008.72 -3.41251 1008.6 -4.19852 1008.63 -4.98567C1008.67 -5.77284 1008.86 -6.54541 1009.19 -7.25851C1009.53 -7.97158 1010 -8.61095 1010.59 -9.13942L1014.99 -13.249C1015.56 -13.7822 1016.23 -14.1978 1016.97 -14.4721C1017.7 -14.7464 1018.47 -14.8741 1019.26 -14.8477C1020.04 -14.8213 1020.8 -14.6415 1021.51 -14.3185C1022.22 -13.9955 1022.86 -13.5356 1023.4 -12.9651L1023.38 -12.9472Z" fill="black"/>
</g>
<g opacity="0.1" clip-path="url(#clip1_3288_262065)">
<path d="M689.053 197.043L686.139 204.407C685.909 204.999 685.91 205.655 686.14 206.247C686.371 206.838 686.815 207.322 687.384 207.602C688.264 208.034 688.949 208.782 689.304 209.696C689.658 210.61 689.657 211.624 689.299 212.536C688.936 213.446 688.243 214.187 687.359 214.61C686.476 215.034 685.465 215.11 684.527 214.824C683.92 214.639 683.266 214.688 682.693 214.962C682.121 215.235 681.671 215.714 681.434 216.302L678.516 223.674C678.27 224.296 678.282 224.991 678.548 225.605C678.814 226.219 679.313 226.703 679.935 226.95L691.674 231.595C692.4 231.881 693.183 231.995 693.961 231.928C694.111 231.916 694.262 231.938 694.402 231.993C694.541 232.049 694.667 232.135 694.767 232.247C695.289 232.828 695.938 233.281 696.665 233.569L726.77 245.48C727.393 245.726 728.087 245.714 728.702 245.448C729.316 245.182 729.799 244.684 730.046 244.061L732.957 236.691C733.187 236.099 733.186 235.443 732.956 234.852C732.725 234.26 732.282 233.777 731.712 233.496C730.828 233.067 730.139 232.32 729.783 231.405C729.427 230.489 729.43 229.473 729.791 228.56C730.152 227.646 730.846 226.903 731.732 226.479C732.618 226.055 733.632 225.982 734.57 226.274C735.177 226.459 735.831 226.41 736.404 226.136C736.977 225.863 737.426 225.384 737.664 224.796L740.577 217.431C740.823 216.809 740.812 216.114 740.546 215.5C740.28 214.886 739.781 214.402 739.159 214.155L709.053 202.244C708.327 201.957 707.544 201.843 706.766 201.91C706.616 201.922 706.465 201.9 706.325 201.845C706.185 201.789 706.059 201.702 705.959 201.59C705.437 201.009 704.788 200.557 704.063 200.269L692.323 195.625C691.701 195.381 691.008 195.393 690.395 195.659C689.782 195.924 689.3 196.422 689.053 197.043ZM697.116 225.133C697.364 225.231 697.59 225.377 697.782 225.562C697.973 225.748 698.126 225.969 698.232 226.214C698.338 226.459 698.395 226.722 698.399 226.988C698.404 227.255 698.355 227.52 698.257 227.768L697.497 229.689C697.294 230.182 696.904 230.575 696.413 230.783C695.922 230.991 695.369 230.998 694.873 230.802C694.377 230.605 693.978 230.222 693.763 229.734C693.547 229.246 693.533 228.693 693.722 228.194L694.481 226.274C694.579 226.026 694.725 225.8 694.91 225.608C695.096 225.416 695.317 225.263 695.562 225.157C695.807 225.051 696.07 224.995 696.336 224.99C696.603 224.986 696.868 225.034 697.116 225.133ZM700.021 217.79C700.522 217.988 700.923 218.377 701.137 218.871C701.351 219.365 701.36 219.923 701.162 220.424L700.436 222.26C700.337 222.508 700.191 222.734 700.006 222.925C699.82 223.117 699.599 223.27 699.354 223.376C699.109 223.482 698.846 223.539 698.58 223.543C698.313 223.547 698.048 223.499 697.8 223.401C697.299 223.203 696.898 222.814 696.684 222.32C696.578 222.075 696.521 221.812 696.517 221.545C696.513 221.278 696.561 221.013 696.659 220.765L697.385 218.93C697.483 218.681 697.629 218.454 697.815 218.262C698 218.07 698.222 217.917 698.467 217.81C698.712 217.704 698.976 217.647 699.243 217.643C699.51 217.639 699.775 217.687 700.024 217.786L700.021 217.79ZM702.926 210.447C703.174 210.545 703.401 210.691 703.592 210.877C703.784 211.062 703.937 211.283 704.043 211.528C704.149 211.773 704.205 212.036 704.21 212.303C704.214 212.569 704.166 212.834 704.067 213.082L703.341 214.918C703.138 215.411 702.748 215.804 702.257 216.012C701.766 216.221 701.213 216.227 700.717 216.031C700.221 215.835 699.822 215.451 699.607 214.963C699.391 214.475 699.377 213.922 699.566 213.423L700.292 211.588C700.389 211.339 700.535 211.111 700.72 210.919C700.906 210.726 701.127 210.572 701.372 210.465C701.617 210.359 701.881 210.301 702.148 210.297C702.415 210.292 702.681 210.34 702.93 210.439L702.926 210.447ZM705.873 203.027C706.121 203.125 706.347 203.271 706.538 203.456C706.73 203.642 706.883 203.863 706.989 204.108C707.095 204.353 707.152 204.616 707.156 204.883C707.16 205.149 707.112 205.414 707.014 205.662L706.251 207.574C706.155 207.826 706.01 208.056 705.825 208.25C705.639 208.445 705.417 208.601 705.17 208.709C704.924 208.817 704.658 208.876 704.389 208.88C704.12 208.885 703.853 208.836 703.603 208.736C703.353 208.637 703.125 208.488 702.933 208.3C702.741 208.112 702.588 207.887 702.484 207.639C702.379 207.391 702.325 207.125 702.324 206.855C702.323 206.586 702.376 206.32 702.479 206.071L703.24 204.158C703.338 203.911 703.484 203.684 703.67 203.493C703.856 203.301 704.077 203.148 704.322 203.042C704.567 202.937 704.83 202.88 705.097 202.876C705.363 202.872 705.628 202.92 705.876 203.018L705.873 203.027Z" fill="black"/>
</g>
<g opacity="0.1" clip-path="url(#clip2_3288_262065)">
<path d="M1649.48 15.8926L1643.78 30.302C1643.33 31.4598 1643.33 32.7439 1643.78 33.901C1644.24 35.058 1645.1 36.0041 1646.22 36.5528C1647.94 37.3991 1649.28 38.8613 1649.97 40.6495C1650.67 42.4377 1650.67 44.4214 1649.97 46.2076C1649.25 47.9881 1647.9 49.4362 1646.17 50.2652C1644.44 51.0942 1642.46 51.2435 1640.63 50.6836C1639.44 50.3215 1638.16 50.4175 1637.04 50.9528C1635.92 51.4881 1635.04 52.4239 1634.58 53.5755L1628.87 67.9989C1628.39 69.217 1628.41 70.5761 1628.93 71.7777C1629.45 72.9794 1630.43 73.9255 1631.64 74.4084L1654.61 83.4977C1656.03 84.0573 1657.56 84.2802 1659.09 84.1489C1659.38 84.1248 1659.68 84.1685 1659.95 84.2767C1660.22 84.385 1660.47 84.5547 1660.66 84.7729C1661.68 85.9107 1662.96 86.7961 1664.38 87.3594L1723.28 110.665C1724.5 111.145 1725.86 111.123 1727.06 110.603C1728.26 110.082 1729.21 109.106 1729.69 107.889L1735.39 93.4684C1735.84 92.3106 1735.83 91.0265 1735.38 89.8695C1734.93 88.7124 1734.06 87.7663 1732.95 87.2177C1731.22 86.3785 1729.87 84.9168 1729.18 83.1256C1728.48 81.3343 1728.48 79.3458 1729.19 77.5585C1729.9 75.7712 1731.26 74.3171 1732.99 73.4877C1734.72 72.6583 1736.71 72.5147 1738.54 73.0858C1739.73 73.448 1741.01 73.3519 1742.13 72.8166C1743.25 72.2813 1744.13 71.3456 1744.59 70.194L1750.3 55.7846C1750.78 54.5665 1750.75 53.2074 1750.23 52.0058C1749.71 50.8041 1748.74 49.858 1747.52 49.3751L1688.62 26.0698C1687.19 25.5088 1685.66 25.2848 1684.14 25.4153C1683.85 25.4402 1683.55 25.3967 1683.28 25.2882C1683 25.1797 1682.76 25.0092 1682.56 24.79C1681.54 23.6535 1680.27 22.7687 1678.85 22.2048L1655.88 13.1188C1654.67 12.6413 1653.31 12.665 1652.11 13.1848C1650.91 13.7046 1649.97 14.6782 1649.48 15.8926ZM1665.26 70.8531C1665.74 71.0451 1666.19 71.3307 1666.56 71.6937C1666.94 72.0567 1667.24 72.49 1667.44 72.9688C1667.65 73.4476 1667.76 73.9626 1667.77 74.4843C1667.78 75.0061 1667.68 75.5243 1667.49 76.0095L1666.01 79.7677C1665.61 80.7323 1664.85 81.5015 1663.88 81.909C1662.92 82.3164 1661.84 82.3295 1660.87 81.9454C1659.9 81.5612 1659.12 80.8107 1658.7 79.856C1658.28 78.9013 1658.25 77.8191 1658.62 76.8433L1660.1 73.086C1660.3 72.6008 1660.58 72.1581 1660.94 71.7833C1661.31 71.4085 1661.74 71.1088 1662.22 70.9015C1662.7 70.6941 1663.21 70.5831 1663.73 70.5749C1664.26 70.5666 1664.77 70.6611 1665.26 70.8531ZM1670.94 56.4862C1671.92 56.874 1672.71 57.6347 1673.13 58.6012C1673.55 59.5677 1673.56 60.6608 1673.18 61.6403L1671.75 65.232C1671.56 65.7172 1671.28 66.1598 1670.91 66.5346C1670.55 66.9094 1670.12 67.209 1669.64 67.4163C1669.16 67.6237 1668.65 67.7347 1668.12 67.743C1667.6 67.7513 1667.08 67.6568 1666.6 67.4648C1665.62 67.0772 1664.83 66.3161 1664.41 65.3491C1664.21 64.8703 1664.1 64.3553 1664.09 63.8336C1664.08 63.3119 1664.17 62.7937 1664.37 62.3085L1665.79 58.7168C1665.98 58.2304 1666.26 57.7866 1666.63 57.4107C1666.99 57.0348 1667.42 56.7343 1667.9 56.5264C1668.38 56.3185 1668.9 56.2073 1669.42 56.1991C1669.94 56.1909 1670.46 56.2859 1670.95 56.4787L1670.94 56.4862ZM1676.63 42.1193C1677.11 42.3112 1677.56 42.5968 1677.93 42.9598C1678.31 43.3228 1678.61 43.7561 1678.81 44.2349C1679.02 44.7138 1679.13 45.2287 1679.14 45.7505C1679.15 46.2722 1679.05 46.7904 1678.86 47.2756L1677.44 50.8673C1677.04 51.8319 1676.28 52.6011 1675.32 53.0086C1674.36 53.416 1673.28 53.4291 1672.31 53.045C1671.33 52.6608 1670.55 51.9103 1670.13 50.9556C1669.71 50.0009 1669.68 48.9187 1670.05 47.9429L1671.47 44.3511C1671.66 43.864 1671.95 43.4194 1672.31 43.0426C1672.67 42.6658 1673.11 42.3643 1673.59 42.1554C1674.07 41.9465 1674.58 41.8344 1675.11 41.8254C1675.63 41.8164 1676.15 41.9107 1676.63 42.1029L1676.63 42.1193ZM1682.39 27.6011C1682.88 27.793 1683.32 28.0786 1683.7 28.4416C1684.07 28.8046 1684.37 29.2379 1684.58 29.7167C1684.78 30.1956 1684.9 30.7105 1684.9 31.2323C1684.91 31.754 1684.82 32.2722 1684.63 32.7574L1683.13 36.4987C1682.95 36.9906 1682.66 37.4403 1682.3 37.8215C1681.94 38.2028 1681.5 38.5081 1681.02 38.7196C1680.54 38.9311 1680.02 39.0447 1679.49 39.0537C1678.96 39.0627 1678.44 38.967 1677.95 38.7721C1677.46 38.5772 1677.02 38.287 1676.64 37.9184C1676.27 37.5498 1675.97 37.1102 1675.76 36.625C1675.56 36.1398 1675.45 35.6188 1675.45 35.0923C1675.45 34.5658 1675.55 34.0442 1675.75 33.5579L1677.24 29.8153C1677.43 29.3302 1677.72 28.8877 1678.08 28.513C1678.45 28.1383 1678.88 27.8389 1679.36 27.6317C1679.84 27.4246 1680.35 27.3138 1680.87 27.3058C1681.4 27.2977 1681.91 27.3925 1682.4 27.5848L1682.39 27.6011Z" fill="black"/>
</g>
<g opacity="0.1" clip-path="url(#clip3_3288_262065)">
<path d="M1271.01 47.6824L1280.95 57.0699C1281.75 57.8192 1282.9 58.3792 1284.17 58.6393C1285.44 58.8994 1286.74 58.8408 1287.81 58.475C1289.46 57.9093 1291.46 57.8193 1293.42 58.2228C1295.38 58.6263 1297.16 59.4938 1298.39 60.6536C1299.62 61.8177 1300.21 63.1859 1300.05 64.4872C1299.9 65.7885 1299.01 66.928 1297.55 67.68C1296.61 68.1672 1296.03 68.9048 1295.93 69.7472C1295.83 70.5896 1296.21 71.4758 1297 72.231L1306.94 81.6286C1307.78 82.4214 1309.01 83.0026 1310.36 83.2445C1311.7 83.4863 1313.06 83.3692 1314.12 82.9187L1334.18 74.4084C1335.42 73.8802 1336.42 73.1452 1337.09 72.261C1337.22 72.0912 1337.41 71.9501 1337.65 71.8488C1337.89 71.7474 1338.17 71.6885 1338.47 71.6765C1340.01 71.6188 1341.47 71.3149 1342.71 70.7889L1394.15 48.9613C1395.21 48.5093 1395.9 47.7612 1396.06 46.8813C1396.21 46.0013 1395.83 45.0613 1394.99 44.2676L1385.04 34.8778C1384.24 34.1285 1383.09 33.5685 1381.82 33.3084C1380.55 33.0483 1379.25 33.1069 1378.18 33.4727C1376.54 34.0458 1374.53 34.1402 1372.56 33.737C1370.6 33.3337 1368.82 32.4626 1367.59 31.2982C1366.35 30.1338 1365.76 28.7622 1365.92 27.4581C1366.07 26.154 1366.97 25.0138 1368.44 24.2661C1369.38 23.7788 1369.96 23.0413 1370.06 22.1988C1370.16 21.3564 1369.78 20.4702 1368.99 19.715L1359.06 10.3276C1358.22 9.53477 1356.99 8.95364 1355.64 8.71177C1354.3 8.46989 1352.94 8.58703 1351.88 9.03748L1300.44 30.8651C1299.2 31.3922 1298.2 32.1265 1297.53 33.0104C1297.4 33.1809 1297.2 33.3225 1296.97 33.4241C1296.73 33.5257 1296.45 33.5845 1296.15 33.596C1294.6 33.6541 1293.15 33.9575 1291.91 34.4824L1271.85 42.9949C1270.79 43.4475 1270.11 44.1947 1269.95 45.0731C1269.79 45.9515 1270.17 46.8897 1271.01 47.6824ZM1328.39 63.1036C1328.82 62.9237 1329.3 62.8079 1329.82 62.7628C1330.34 62.7176 1330.88 62.744 1331.42 62.8403C1331.96 62.9367 1332.48 63.1012 1332.95 63.3245C1333.42 63.5477 1333.83 63.8253 1334.17 64.1414L1336.76 66.5899C1337.42 67.2273 1337.71 67.977 1337.57 68.6768C1337.44 69.3766 1336.89 69.9705 1336.04 70.3299C1335.19 70.6894 1334.12 70.7856 1333.04 70.5978C1331.97 70.41 1330.99 69.9533 1330.31 69.3263L1327.71 66.8796C1327.38 66.5635 1327.13 66.2151 1326.98 65.8543C1326.84 65.4934 1326.79 65.1272 1326.86 64.7766C1326.92 64.4259 1327.09 64.0977 1327.35 63.8107C1327.62 63.5236 1327.97 63.2833 1328.39 63.1036ZM1318.48 53.7438C1319.34 53.3811 1320.43 53.2866 1321.51 53.4812C1322.59 53.6757 1323.58 54.1433 1324.26 54.7812L1326.73 57.1212C1327.07 57.4372 1327.32 57.7857 1327.46 58.1465C1327.61 58.5073 1327.65 58.8735 1327.59 59.2241C1327.53 59.5748 1327.36 59.903 1327.1 60.19C1326.83 60.4771 1326.48 60.7174 1326.06 60.8972C1325.2 61.2603 1324.11 61.3549 1323.03 61.1603C1322.49 61.0639 1321.97 60.8994 1321.5 60.6762C1321.03 60.453 1320.62 60.1754 1320.28 59.8593L1317.8 57.5194C1317.47 57.2031 1317.22 56.8542 1317.07 56.4928C1316.92 56.1314 1316.88 55.7646 1316.94 55.4133C1317.01 55.062 1317.17 54.7332 1317.44 54.4457C1317.7 54.1582 1318.06 53.9177 1318.48 53.7379L1318.48 53.7438ZM1308.58 44.384C1309 44.2042 1309.49 44.0884 1310.01 44.0432C1310.53 43.9981 1311.07 44.0244 1311.61 44.1208C1312.14 44.2172 1312.66 44.3817 1313.13 44.605C1313.6 44.8282 1314.02 45.1058 1314.35 45.4219L1316.83 47.7619C1317.49 48.3993 1317.78 49.149 1317.64 49.8488C1317.51 50.5486 1316.96 51.1424 1316.11 51.5019C1315.26 51.8613 1314.19 51.9576 1313.11 51.7698C1312.04 51.582 1311.06 51.1253 1310.38 50.4983L1307.9 48.1584C1307.56 47.8423 1307.31 47.4935 1307.16 47.132C1307.01 46.7705 1306.97 46.4034 1307.03 46.0517C1307.09 45.7001 1307.26 45.3708 1307.52 45.0828C1307.79 44.7948 1308.14 44.5537 1308.57 44.3734L1308.58 44.384ZM1298.58 34.9144C1299 34.7346 1299.49 34.6188 1300 34.5737C1300.52 34.5285 1301.07 34.5549 1301.6 34.6512C1302.14 34.7476 1302.66 34.9121 1303.13 35.1354C1303.6 35.3586 1304.02 35.6362 1304.35 35.9523L1306.92 38.3959C1307.27 38.7126 1307.52 39.0631 1307.68 39.4268C1307.83 39.7905 1307.88 40.1603 1307.81 40.5146C1307.75 40.8689 1307.59 41.2006 1307.32 41.4906C1307.05 41.7805 1306.7 42.0229 1306.27 42.2035C1305.84 42.3842 1305.35 42.4995 1304.82 42.5429C1304.3 42.5862 1303.75 42.5567 1303.21 42.4561C1302.67 42.3554 1302.15 42.1856 1301.68 41.9565C1301.2 41.7275 1300.79 41.4437 1300.46 41.1217L1297.88 38.6794C1297.55 38.3632 1297.3 38.0148 1297.15 37.6539C1297.01 37.2931 1296.96 36.9269 1297.03 36.5763C1297.09 36.2257 1297.26 35.8975 1297.52 35.6105C1297.79 35.3236 1298.14 35.0834 1298.56 34.9038L1298.58 34.9144Z" fill="black"/>
</g>
<g opacity="0.1" clip-path="url(#clip4_3288_262065)">
<path d="M1445.01 273.329L1458.39 270.53C1459.47 270.298 1460.58 269.674 1461.52 268.78C1462.46 267.886 1463.15 266.787 1463.46 265.7C1463.94 264.021 1465.01 262.324 1466.46 260.944C1467.91 259.564 1469.64 258.603 1471.29 258.251C1472.95 257.911 1474.41 258.205 1475.39 259.076C1476.37 259.947 1476.79 261.33 1476.58 262.953C1476.45 264.003 1476.72 264.9 1477.35 265.465C1477.99 266.03 1478.93 266.223 1480 266.006L1493.4 263.205C1494.53 262.968 1495.71 262.291 1496.67 261.324C1497.64 260.357 1498.32 259.179 1498.55 258.048L1503.02 236.72C1503.29 235.401 1503.26 234.164 1502.91 233.107C1502.85 232.903 1502.84 232.665 1502.9 232.411C1502.95 232.157 1503.06 231.894 1503.22 231.643C1504.06 230.339 1504.64 228.973 1504.91 227.653L1516.36 172.956C1516.59 171.825 1516.37 170.835 1515.74 170.203C1515.11 169.571 1514.12 169.348 1512.99 169.584L1499.6 172.393C1498.52 172.624 1497.41 173.249 1496.47 174.143C1495.53 175.037 1494.84 176.136 1494.53 177.222C1494.06 178.903 1492.99 180.606 1491.53 181.989C1490.08 183.373 1488.35 184.334 1486.69 184.682C1485.03 185.029 1483.57 184.736 1482.58 183.862C1481.6 182.988 1481.18 181.597 1481.4 179.968C1481.54 178.918 1481.27 178.021 1480.63 177.456C1480 176.891 1479.06 176.698 1477.98 176.915L1464.6 179.715C1463.47 179.952 1462.3 180.629 1461.33 181.595C1460.36 182.562 1459.69 183.74 1459.45 184.871L1448 239.568C1447.73 240.887 1447.76 242.124 1448.1 243.181C1448.17 243.386 1448.18 243.624 1448.12 243.879C1448.07 244.134 1447.96 244.397 1447.8 244.649C1446.96 245.952 1446.38 247.317 1446.1 248.636L1441.64 269.964C1441.41 271.092 1441.63 272.079 1442.26 272.71C1442.9 273.34 1443.88 273.563 1445.01 273.329ZM1490.43 235.019C1490.53 234.568 1490.71 234.104 1490.97 233.651C1491.23 233.199 1491.56 232.768 1491.94 232.383C1492.33 231.997 1492.76 231.666 1493.21 231.406C1493.66 231.147 1494.13 230.965 1494.58 230.87L1498.07 230.14C1498.97 229.965 1499.75 230.152 1500.25 230.662C1500.75 231.172 1500.92 231.963 1500.73 232.864C1500.54 233.765 1500.01 234.704 1499.24 235.478C1498.47 236.252 1497.54 236.799 1496.63 237L1493.14 237.732C1492.69 237.826 1492.27 237.831 1491.89 237.745C1491.51 237.66 1491.18 237.487 1490.93 237.235C1490.68 236.983 1490.5 236.657 1490.42 236.277C1490.33 235.897 1490.34 235.469 1490.43 235.019ZM1477.09 237.81C1477.28 236.901 1477.82 235.953 1478.6 235.176C1479.38 234.398 1480.33 233.854 1481.24 233.664L1484.57 232.966C1485.02 232.872 1485.45 232.867 1485.83 232.952C1486.21 233.038 1486.54 233.211 1486.79 233.463C1487.04 233.715 1487.21 234.04 1487.3 234.42C1487.38 234.801 1487.38 235.228 1487.28 235.679C1487.09 236.588 1486.55 237.537 1485.77 238.315C1485.39 238.7 1484.96 239.032 1484.5 239.291C1484.05 239.551 1483.59 239.733 1483.14 239.827L1479.8 240.525C1479.35 240.62 1478.92 240.626 1478.54 240.541C1478.16 240.456 1477.83 240.282 1477.58 240.03C1477.33 239.778 1477.15 239.452 1477.07 239.071C1476.98 238.69 1476.99 238.262 1477.08 237.81L1477.09 237.81ZM1463.75 240.602C1463.84 240.151 1464.03 239.687 1464.29 239.234C1464.54 238.782 1464.88 238.351 1465.26 237.966C1465.65 237.58 1466.08 237.249 1466.53 236.989C1466.98 236.73 1467.45 236.547 1467.9 236.453L1471.23 235.755C1472.13 235.58 1472.91 235.768 1473.41 236.277C1473.91 236.787 1474.08 237.578 1473.89 238.479C1473.71 239.38 1473.17 240.319 1472.4 241.093C1471.64 241.867 1470.7 242.414 1469.8 242.616L1466.46 243.313C1466.01 243.41 1465.58 243.416 1465.2 243.332C1464.82 243.248 1464.49 243.075 1464.24 242.823C1463.98 242.572 1463.81 242.246 1463.72 241.866C1463.64 241.485 1463.64 241.057 1463.73 240.605L1463.75 240.602ZM1450.27 243.407C1450.36 242.957 1450.54 242.492 1450.8 242.04C1451.06 241.587 1451.39 241.156 1451.78 240.771C1452.16 240.386 1452.59 240.054 1453.05 239.795C1453.5 239.535 1453.96 239.353 1454.41 239.259L1457.89 238.54C1458.35 238.44 1458.78 238.43 1459.16 238.513C1459.55 238.595 1459.88 238.767 1460.14 239.019C1460.39 239.272 1460.57 239.599 1460.66 239.982C1460.74 240.366 1460.74 240.797 1460.64 241.252C1460.55 241.707 1460.36 242.176 1460.1 242.632C1459.83 243.088 1459.49 243.522 1459.1 243.908C1458.71 244.294 1458.27 244.625 1457.82 244.882C1457.36 245.139 1456.89 245.316 1456.44 245.404L1452.96 246.125C1452.51 246.219 1452.08 246.224 1451.7 246.138C1451.32 246.053 1451 245.879 1450.75 245.627C1450.49 245.375 1450.32 245.049 1450.24 244.669C1450.15 244.289 1450.16 243.861 1450.25 243.411L1450.27 243.407Z" fill="black"/>
</g>
<g opacity="0.1" clip-path="url(#clip5_3288_262065)">
<path d="M302.187 278.121L304.498 261.951C304.674 260.654 304.358 259.338 303.612 258.263C302.867 257.187 301.745 256.43 300.468 256.141C298.496 255.695 296.763 254.525 295.613 252.862C294.463 251.199 293.98 249.165 294.259 247.162C294.552 245.162 295.586 243.346 297.155 242.072C298.725 240.798 300.715 240.16 302.733 240.284C304.039 240.364 305.328 239.952 306.346 239.128C307.363 238.305 308.035 237.13 308.229 235.836L310.545 219.65C310.739 218.284 310.383 216.896 309.555 215.792C308.727 214.687 307.494 213.957 306.128 213.76L280.354 210.074C278.759 209.849 277.134 209.996 275.606 210.504C275.311 210.6 274.998 210.628 274.691 210.584C274.384 210.54 274.092 210.426 273.836 210.251C272.511 209.335 270.991 208.738 269.396 208.509L203.297 199.061C201.931 198.867 200.543 199.223 199.439 200.051C198.335 200.879 197.604 202.111 197.407 203.477L195.104 219.657C194.927 220.954 195.243 222.27 195.989 223.346C196.735 224.421 197.857 225.178 199.134 225.468C201.112 225.904 202.853 227.072 204.006 228.737C205.16 230.403 205.642 232.442 205.355 234.448C205.069 236.454 204.035 238.277 202.461 239.552C200.886 240.828 198.888 241.461 196.867 241.326C195.56 241.246 194.271 241.658 193.254 242.481C192.236 243.305 191.564 244.48 191.37 245.774L189.059 261.944C188.865 263.31 189.221 264.698 190.049 265.802C190.877 266.906 192.11 267.637 193.476 267.834L259.575 277.282C261.169 277.509 262.794 277.363 264.322 276.856C264.617 276.759 264.931 276.731 265.239 276.775C265.546 276.819 265.84 276.933 266.096 277.11C267.42 278.025 268.938 278.62 270.532 278.851L296.306 282.533C297.671 282.724 299.055 282.367 300.157 281.541C301.259 280.714 301.989 279.484 302.187 278.121ZM272.538 225.647C271.994 225.569 271.47 225.385 270.996 225.105C270.523 224.824 270.11 224.454 269.78 224.014C269.45 223.574 269.21 223.073 269.073 222.54C268.937 222.007 268.907 221.453 268.985 220.908L269.588 216.691C269.759 215.605 270.352 214.629 271.237 213.976C272.122 213.323 273.228 213.044 274.317 213.2C275.406 213.356 276.39 213.934 277.056 214.809C277.722 215.685 278.017 216.787 277.877 217.878L277.276 222.094C277.199 222.638 277.014 223.162 276.734 223.635C276.454 224.108 276.083 224.522 275.643 224.852C275.203 225.182 274.703 225.422 274.17 225.558C273.637 225.695 273.082 225.725 272.538 225.647ZM270.233 241.769C269.135 241.611 268.143 241.024 267.477 240.136C266.811 239.247 266.525 238.131 266.682 237.032L267.258 233.002C267.336 232.457 267.52 231.934 267.8 231.46C268.081 230.987 268.451 230.574 268.891 230.244C269.331 229.914 269.832 229.674 270.365 229.537C270.898 229.401 271.452 229.371 271.996 229.449C273.096 229.606 274.088 230.193 274.754 231.082C275.084 231.522 275.324 232.023 275.461 232.555C275.597 233.088 275.627 233.643 275.55 234.187L274.973 238.217C274.897 238.763 274.713 239.288 274.433 239.762C274.152 240.237 273.781 240.651 273.341 240.982C272.9 241.313 272.399 241.553 271.865 241.69C271.331 241.826 270.776 241.856 270.23 241.777L270.233 241.769ZM267.929 257.89C267.384 257.812 266.861 257.628 266.387 257.348C265.914 257.068 265.501 256.697 265.171 256.257C264.841 255.817 264.601 255.316 264.464 254.783C264.328 254.251 264.298 253.696 264.376 253.152L264.952 249.121C265.124 248.035 265.716 247.06 266.601 246.406C267.486 245.753 268.593 245.474 269.681 245.63C270.77 245.786 271.754 246.364 272.42 247.239C273.086 248.115 273.381 249.217 273.241 250.308L272.665 254.339C272.589 254.885 272.407 255.41 272.127 255.886C271.848 256.361 271.477 256.776 271.037 257.108C270.597 257.439 270.095 257.681 269.562 257.818C269.028 257.956 268.472 257.986 267.926 257.909L267.929 257.89ZM265.579 274.187C265.034 274.109 264.51 273.925 264.037 273.644C263.564 273.364 263.151 272.994 262.821 272.554C262.491 272.113 262.251 271.613 262.114 271.08C261.978 270.547 261.948 269.993 262.026 269.448L262.637 265.247C262.709 264.697 262.89 264.166 263.169 263.687C263.447 263.207 263.819 262.787 264.261 262.452C264.704 262.117 265.208 261.873 265.746 261.735C266.283 261.596 266.843 261.566 267.392 261.646C267.941 261.726 268.469 261.914 268.945 262.2C269.421 262.486 269.835 262.863 270.164 263.31C270.492 263.757 270.729 264.266 270.859 264.805C270.99 265.344 271.012 265.904 270.924 266.452L270.316 270.654C270.238 271.198 270.054 271.722 269.773 272.195C269.493 272.668 269.122 273.082 268.682 273.411C268.242 273.741 267.741 273.981 267.208 274.117C266.675 274.253 266.121 274.283 265.576 274.205L265.579 274.187Z" fill="black"/>
</g>
<g opacity="0.1" clip-path="url(#clip6_3288_262065)">
<path d="M661.97 53.1502L686.271 19.7023C688.197 17.0295 688.88 14.8795 688.185 13.6764C687.49 12.4732 685.467 12.3041 682.516 13.2025C677.955 14.5927 674.832 14.3298 673.766 12.4658C672.7 10.6018 673.768 7.27272 676.76 3.13838C679.785 -1.0071 684.504 -5.64427 689.982 -9.85469C695.461 -14.0651 701.299 -17.5417 706.341 -19.5958C709.607 -20.927 713.387 -23.1771 716.937 -25.9023C720.486 -28.6276 723.546 -31.6303 725.515 -34.3182L749.845 -67.8018C751.895 -70.6272 752.556 -72.8681 751.683 -74.0328C750.809 -75.1975 748.473 -75.1908 745.186 -74.0141L683.154 -51.771C679.313 -50.389 674.971 -48.263 670.468 -45.5595C669.601 -45.0407 668.766 -44.6331 668.027 -44.3682C667.289 -44.1033 666.666 -43.9882 666.208 -44.032C663.844 -44.2734 660.616 -43.6838 656.78 -42.3096L497.691 14.7426C494.401 15.9247 490.431 18.1794 486.654 21.012C482.876 23.8446 479.6 27.0235 477.543 29.8511L453.251 63.31C451.324 65.9829 450.642 68.1328 451.337 69.336C452.032 70.5392 454.054 70.7083 457.006 69.8099C461.593 68.3948 464.738 68.6444 465.811 70.5088C466.884 72.3731 465.806 75.7145 462.792 79.8633C459.777 84.0121 455.05 88.6618 449.558 92.8808C444.065 97.0997 438.213 100.576 433.173 102.614C429.907 103.945 426.127 106.195 422.578 108.92C419.029 111.645 415.968 114.648 414 117.336L389.699 150.784C387.649 153.609 386.987 155.85 387.861 157.015C388.734 158.18 391.071 158.173 394.357 156.996L553.445 99.9439C557.284 98.5655 561.624 96.4419 566.127 93.7399C566.996 93.2189 567.833 92.8095 568.574 92.544C569.314 92.2784 569.938 92.1638 570.395 92.2093C572.759 92.4493 575.983 91.8608 579.815 90.4901L641.852 68.2394C645.14 67.0546 649.103 64.8019 652.873 61.9742C656.643 59.1464 659.914 55.9738 661.97 53.1502ZM645.389 -13.2086C644.079 -12.7385 642.942 -12.4949 642.044 -12.4917C641.147 -12.4885 640.506 -12.7257 640.158 -13.1897C639.81 -13.6538 639.762 -14.3357 640.016 -15.1965C640.271 -16.0572 640.823 -17.0799 641.642 -18.2063L647.98 -26.9301C649.655 -29.1964 652.284 -31.7283 655.3 -33.9786C658.316 -36.229 661.475 -38.017 664.095 -38.9564C666.716 -39.8958 668.587 -39.9111 669.304 -38.9989C670.022 -38.0867 669.528 -36.3204 667.929 -34.0816L661.598 -25.3631C660.78 -24.2369 659.712 -23.0291 658.454 -21.8087C657.197 -20.5884 655.775 -19.3793 654.27 -18.2506C652.765 -17.1219 651.206 -16.0957 649.682 -15.2306C648.158 -14.3655 646.699 -13.6784 645.389 -13.2086ZM621.16 20.1407C618.516 21.0885 616.636 21.0948 615.933 20.158C615.231 19.2213 615.763 17.4183 617.414 15.1453L623.471 6.80795C624.29 5.68173 625.358 4.47397 626.615 3.25365C627.873 2.03332 629.295 0.824297 630.8 -0.30435C632.305 -1.43301 633.864 -2.45918 635.388 -3.32432C636.911 -4.18947 638.37 -4.87662 639.68 -5.34655C642.327 -6.29561 644.208 -6.30224 644.911 -5.36499C645.259 -4.90092 645.307 -4.21908 645.053 -3.35841C644.798 -2.49774 644.246 -1.4751 643.428 -0.348883L637.371 7.98845C636.553 9.11575 635.485 10.3253 634.226 11.5477C632.968 12.7701 631.544 13.9815 630.036 15.1123C628.529 16.2431 626.967 17.2712 625.441 18.1376C623.915 19.004 622.454 19.6917 621.142 20.1613L621.16 20.1407ZM596.931 53.4901C595.62 53.9602 594.484 54.2038 593.586 54.207C592.689 54.2102 592.048 53.973 591.7 53.5089C591.352 53.0448 591.304 52.3629 591.558 51.5022C591.813 50.6415 592.365 49.6187 593.183 48.4924L599.241 40.1551C600.916 37.8888 603.545 35.357 606.561 33.1066C609.577 30.8563 612.736 29.0682 615.356 28.1288C617.977 27.1894 619.848 27.1741 620.565 28.0863C621.283 28.9985 620.789 30.7648 619.19 33.0036L613.133 41.341C612.318 42.4678 611.251 43.6775 609.994 44.9007C608.736 46.1238 607.313 47.3363 605.805 48.4685C604.297 49.6008 602.735 50.6306 601.207 51.4988C599.68 52.367 598.217 53.0566 596.903 53.528L596.931 53.4901ZM572.386 87.2244C571.076 87.6945 569.939 87.9381 569.042 87.9413C568.144 87.9446 567.503 87.7073 567.155 87.2433C566.807 86.7792 566.759 86.0973 567.013 85.2365C567.268 84.3758 567.82 83.3531 568.639 82.2267L574.981 73.5237C575.791 72.393 576.858 71.1765 578.119 69.9452C579.38 68.7138 580.811 67.492 582.328 66.3508C583.845 65.2096 585.418 64.1719 586.956 63.2978C588.494 62.4238 589.966 61.7309 591.287 61.2594C592.607 60.788 593.749 60.5474 594.647 60.5516C595.545 60.5559 596.181 60.8048 596.518 61.2841C596.854 61.7634 596.885 62.4633 596.607 63.3434C596.33 64.2233 595.751 65.2658 594.903 66.4101L588.569 75.11C587.751 76.2364 586.682 77.4443 585.424 78.6647C584.166 79.8851 582.744 81.094 581.239 82.2225C579.734 83.351 578.175 84.3769 576.651 85.2416C575.127 86.1064 573.669 86.793 572.359 87.2623L572.386 87.2244Z" fill="black"/>
</g>
</g>
<defs>
<clipPath id="clip0_3288_262065">
<rect width="1920" height="500" fill="white"/>
</clipPath>
<clipPath id="clip1_3288_262065">
<rect width="64.9748" height="64.9748" fill="white" transform="translate(692.648 263.274) rotate(-113.414)"/>
</clipPath>
<clipPath id="clip2_3288_262065">
<rect width="127.129" height="127.129" fill="white" transform="translate(1656.52 145.48) rotate(-113.414)"/>
</clipPath>
<clipPath id="clip3_3288_262065">
<rect width="132.738" height="86.8007" fill="white" transform="translate(1390.64 100.432) rotate(-169.811)"/>
</clipPath>
<clipPath id="clip4_3288_262065">
<rect width="132.738" height="86.8007" fill="white" transform="translate(1556.62 205.215) rotate(135)"/>
</clipPath>
<clipPath id="clip5_3288_262065">
<rect width="134" height="134" fill="white" transform="translate(263.207 147) rotate(53.1352)"/>
</clipPath>
<clipPath id="clip6_3288_262065">
<rect width="141.33" height="458.377" fill="white" transform="translate(710.727 -152.532) rotate(53.1352)"/>
</clipPath>
</defs>
</svg>
